HIERARCHY
ROOT Hips
{
	OFFSET 0.000000 89.005402 0.000000
	CHANNELS 6 Xposition Yposition Zposition Xrotation Yrotation Zrotation
	JOINT Spine
	{
		OFFSET 0.116900 10.681000 0.373400
		CHANNELS 3 Xrotation Yrotation Zrotation
		JOINT Spine1
		{
			OFFSET 0.000000 13.840401 0.053500
			CHANNELS 3 Xrotation Yrotation Zrotation
			JOINT Spine2
			{
				OFFSET 0.000000 14.712700 -0.366200
				CHANNELS 3 Xrotation Yrotation Zrotation
				JOINT Neck
				{
					OFFSET 0.000000 35.415497 -3.314200
					CHANNELS 3 Xrotation Yrotation Zrotation
					JOINT Head
					{
						OFFSET 0.000000 16.899200 1.218300
						CHANNELS 3 Xrotation Yrotation Zrotation
						JOINT HeadTop_End
						{
							OFFSET 0.000000 22.206207 2.192500
							CHANNELS 3 Xrotation Yrotation Zrotation
							End Site
							{
								OFFSET 0.000000 22.314178 0.000000
							}
						}
					}
				}
				JOINT LeftShoulder
				{
					OFFSET 12.896400 26.716293 -4.548400
					CHANNELS 3 Xrotation Yrotation Zrotation
					JOINT LeftArm
					{
						OFFSET 19.027000 -4.857010 -1.718400
						CHANNELS 3 Xrotation Yrotation Zrotation
						JOINT LeftForeArm
						{
							OFFSET 24.179897 0.000000 0.000000
							CHANNELS 3 Xrotation Yrotation Zrotation
							JOINT LeftHand
							{
								OFFSET 27.156403 0.000000 0.000000
								CHANNELS 3 Xrotation Yrotation Zrotation
								JOINT LeftHandIndex1
								{
									OFFSET 16.441200 0.000000 0.000000
									CHANNELS 3 Xrotation Yrotation Zrotation
									JOINT LeftHandIndex2
									{
										OFFSET 4.821899 0.000000 0.000000
										CHANNELS 3 Xrotation Yrotation Zrotation
										JOINT LeftHandIndex3
										{
											OFFSET 6.386497 0.000000 0.000000
											CHANNELS 3 Xrotation Yrotation Zrotation
											JOINT LeftHandIndex4
											{
												OFFSET 5.188988 0.000000 0.000000
												CHANNELS 3 Xrotation Yrotation Zrotation
												End Site
												{
													OFFSET -0.178703 5.185913 0.000177
												}
											}
										}
									}
								}
								JOINT LeftHandThumb1
								{
									OFFSET 6.534897 -5.032593 5.900300
									CHANNELS 3 Xrotation Yrotation Zrotation
									JOINT LeftHandThumb2
									{
										OFFSET 3.818176 -2.204422 2.204423
										CHANNELS 3 Xrotation Yrotation Zrotation
										JOINT LeftHandThumb3
										{
											OFFSET 3.252098 -1.877594 1.877601
											CHANNELS 3 Xrotation Yrotation Zrotation
											JOINT LeftHandThumb4
											{
												OFFSET 5.251778 -3.032120 3.032117
												CHANNELS 3 Xrotation Yrotation Zrotation
												End Site
												{
													OFFSET 0.000023 6.780014 0.000000
												}
											}
										}
									}
								}
							}
						}
					}
				}
				JOINT RightShoulder
				{
					OFFSET -12.896300 26.716293 -4.548400
					CHANNELS 3 Xrotation Yrotation Zrotation
					JOINT RightArm
					{
						OFFSET -19.027000 -4.857010 -1.718400
						CHANNELS 3 Xrotation Yrotation Zrotation
						JOINT RightForeArm
						{
							OFFSET -24.179897 0.000000 0.000000
							CHANNELS 3 Xrotation Yrotation Zrotation
							JOINT RightHand
							{
								OFFSET -27.156403 0.000000 0.000000
								CHANNELS 3 Xrotation Yrotation Zrotation
								JOINT RightHandThumb1
								{
									OFFSET -6.591202 -4.852203 5.988100
									CHANNELS 3 Xrotation Yrotation Zrotation
									JOINT RightHandThumb2
									{
										OFFSET -3.818176 -2.204422 2.204423
										CHANNELS 3 Xrotation Yrotation Zrotation
										JOINT RightHandThumb3
										{
											OFFSET -3.252098 -1.877594 1.877601
											CHANNELS 3 Xrotation Yrotation Zrotation
											JOINT RightHandThumb4
											{
												OFFSET -5.251778 -3.032120 3.032117
												CHANNELS 3 Xrotation Yrotation Zrotation
												End Site
												{
													OFFSET -0.000023 6.780014 0.000000
												}
											}
										}
									}
								}
								JOINT RightHandIndex1
								{
									OFFSET -16.029404 0.000000 0.000000
									CHANNELS 3 Xrotation Yrotation Zrotation
									JOINT RightHandIndex2
									{
										OFFSET -5.213303 0.000000 0.000000
										CHANNELS 3 Xrotation Yrotation Zrotation
										JOINT RightHandIndex3
										{
											OFFSET -6.386528 0.000000 0.000000
											CHANNELS 3 Xrotation Yrotation Zrotation
											JOINT RightHandIndex4
											{
												OFFSET -5.189026 0.000000 0.000000
												CHANNELS 3 Xrotation Yrotation Zrotation
												End Site
												{
													OFFSET 0.236702 5.183624 0.001972
												}
											}
										}
									}
								}
							}
						}
					}
				}
			}
		}
	}
	JOINT LeftUpLeg
	{
		OFFSET 14.073000 -7.904099 -1.463000
		CHANNELS 3 Xrotation Yrotation Zrotation
		JOINT LeftLeg
		{
			OFFSET -0.109806 -34.073280 4.093200
			CHANNELS 3 Xrotation Yrotation Zrotation
			JOINT LeftFoot
			{
				OFFSET 0.109806 -29.899420 -6.319000
				CHANNELS 3 Xrotation Yrotation Zrotation
				JOINT LeftToeBase
				{
					OFFSET 1.551100 -14.988700 20.535801
					CHANNELS 3 Xrotation Yrotation Zrotation
					JOINT LeftToe_End
					{
						OFFSET 0.221200 0.570800 13.248301
						CHANNELS 3 Xrotation Yrotation Zrotation
						End Site
						{
							OFFSET 0.000000 13.262435 0.000000
						}
					}
				}
			}
		}
	}
	JOINT RightUpLeg
	{
		OFFSET -13.839300 -7.904099 -1.463000
		CHANNELS 3 Xrotation Yrotation Zrotation
		JOINT RightLeg
		{
			OFFSET 0.109694 -34.073219 4.093300
			CHANNELS 3 Xrotation Yrotation Zrotation
			JOINT RightFoot
			{
				OFFSET -0.109694 -29.899384 -6.319200
				CHANNELS 3 Xrotation Yrotation Zrotation
				JOINT RightToeBase
				{
					OFFSET -1.551100 -14.988700 20.535801
					CHANNELS 3 Xrotation Yrotation Zrotation
					JOINT RightToe_End
					{
						OFFSET -0.221200 0.570900 13.248299
						CHANNELS 3 Xrotation Yrotation Zrotation
						End Site
						{
							OFFSET 0.000000 13.262440 0.000000
						}
					}
				}
			}
		}
	}
}
MOTION
Frames: 7
Frame Time: 0.033333
-1.231803 63.183838 1.495947 16.413274 7.721950 4.821577 11.014824 -14.942524 9.348591 2.856200 -4.087946 0.126405 2.861620 -4.312287 0.311447 -0.688862 2.356469 -4.369683 -6.951133 9.322001 -11.106346 0.000001 -0.000000 0.000000 2.903297 -12.041200 7.524084 -35.309158 -72.764444 -8.707663 -0.000185 -93.010347 -0.000189 16.640996 -21.561072 10.765713 0.643244 5.219056 -14.497440 0.212944 1.566681 -15.479611 0.212817 1.566231 -15.474953 -0.000004 -0.000000 -0.000002 -14.374000 -24.771124 -3.357601 9.932506 43.708153 4.988160 -9.012745 -8.993966 12.231300 0.000001 0.000002 0.000001 1.124721 1.331172 15.116525 -9.590831 -31.513212 40.008403 -0.000002 10.721305 -0.000005 16.783622 19.030285 -20.612609 -6.394893 8.753164 -2.624468 8.217783 -29.440957 -1.707589 -7.555533 8.343790 -10.036257 -0.000000 -0.000002 0.000002 -1.791211 6.483441 11.714605 0.189242 -1.315436 16.372465 0.199574 -1.350084 16.816590 -0.000000 0.000001 -0.000001 21.537770 8.493109 -8.024275 40.494221 13.363425 -8.683995 -40.001242 17.254960 -18.416280 -42.282395 -0.000000 0.000005 -0.000001 0.000001 0.000001 -86.763620 0.942938 -0.530354 47.749685 -8.617722 1.007994 15.708713 -28.852611 -11.543161 -4.481343 -0.000015 -0.000000 0.000000 -0.000001 0.000000 
0.253930 63.768776 3.654551 19.782224 6.699925 3.892342 10.669447 -14.897069 10.154968 2.912316 -4.034783 0.917926 2.889846 -4.230679 1.093638 -0.844269 2.498439 -4.420732 -6.806272 11.055906 -13.405894 -0.000000 -0.000000 -0.000000 3.447823 -11.608264 10.647187 -34.796740 -62.802408 -8.363074 -0.000025 -80.100900 -0.000041 14.580856 -24.115192 9.918878 0.625501 5.122521 -14.812843 0.211637 1.561948 -15.431708 0.211488 1.561421 -15.426310 -0.000000 0.000001 -0.000000 -13.462702 -23.176657 -2.473312 9.570510 40.896881 4.737134 -8.464495 -6.242030 12.897021 0.000001 -0.000001 0.000000 1.061733 3.570048 16.037919 -11.913815 -32.390656 36.725271 0.000001 11.245231 -0.000006 9.380922 14.359192 -19.502582 -6.370651 8.685725 -2.875201 8.060758 -28.156290 -1.745855 -7.358247 7.235260 -10.425053 0.000001 -0.000003 0.000000 -1.524968 5.788393 10.883916 0.158446 -1.205702 14.972803 0.167189 -1.237896 15.382399 0.000000 -0.000001 0.000001 14.988719 9.274454 -6.164250 47.649486 11.188849 -9.533845 -30.950292 18.577367 -21.421121 -54.941700 0.000010 0.000007 -0.000000 -0.000001 0.000001 -89.016039 0.140823 -0.818772 49.713884 -7.292880 1.072603 13.648081 -28.518251 -10.269570 -4.990314 0.000007 -0.000005 -0.000000 -0.000001 -0.000000 
2.148051 64.350731 6.652073 23.469476 5.318994 3.132646 10.495661 -14.226583 11.379673 2.955596 -3.904814 1.475377 2.894248 -4.077663 1.643868 -0.959585 2.610580 -4.549069 -6.652727 12.281199 -15.086032 -0.000001 0.000000 -0.000000 3.981108 -11.718627 11.423539 -34.436287 -52.000385 -7.478752 0.000006 -67.969576 0.000002 4.138293 -22.064911 5.037057 0.601061 5.000021 -15.208548 0.209863 1.555523 -15.366549 0.209695 1.554919 -15.360440 -0.000001 -0.000001 0.000003 -12.362522 -21.134069 -1.411194 9.115722 37.292683 4.392061 -7.826001 -2.734286 13.702182 0.000000 0.000002 -0.000001 0.980959 5.584843 17.133118 -15.737427 -33.308422 32.917776 0.000005 12.730831 -0.000000 0.684527 9.685905 -19.232129 -6.288555 8.582345 -3.306323 7.850830 -26.431883 -1.781932 -7.110489 5.797766 -10.917900 -0.000000 -0.000004 0.000002 -1.203531 4.882294 9.759196 0.121407 -1.057566 13.097527 0.128211 -1.086416 13.461461 0.000001 0.000003 0.000002 6.212533 10.683944 -3.546495 56.909225 14.759518 -10.507545 -14.254430 12.786683 -22.000733 -61.774232 -0.000007 -0.000010 0.000001 -0.000001 -0.000002 -91.487891 -1.047618 -1.500978 52.857936 -5.203147 1.104474 10.400008 -28.072516 -8.871946 -5.537245 -0.000010 0.000001 0.000001 0.000002 0.000000 
4.453705 64.878342 9.574617 26.868112 4.196044 2.296828 10.725983 -12.899524 13.062242 3.006582 -3.652546 1.747839 2.899085 -3.808062 1.909763 -1.044525 2.655819 -4.723802 -6.565684 12.781965 -16.107417 0.000001 0.000000 -0.000000 4.449569 -12.433143 9.959353 -34.474034 -40.493313 -6.481295 -0.000003 -55.390488 0.000004 -9.650448 -15.885560 -0.293051 0.567341 4.852650 -15.590965 0.205860 1.540863 -15.218216 0.205667 1.540186 -15.211308 0.000002 -0.000001 -0.000000 -11.169842 -18.755283 -0.260212 8.595486 33.112177 3.961033 -7.179875 1.222189 14.556774 -0.000003 0.000001 0.000001 0.787971 7.657933 17.754093 -20.034004 -34.852171 30.402972 0.000005 15.047416 0.000001 -9.542436 5.277026 -19.710041 -6.161102 8.446407 -3.882655 7.580468 -24.317523 -1.817410 -6.823222 4.058756 -11.502334 0.000000 -0.000003 0.000000 -0.860426 3.776805 8.377516 0.082654 -0.874465 10.799347 0.087411 -0.899033 11.106360 0.000000 0.000001 0.000001 -0.298482 13.880330 -2.970698 51.399701 10.225150 -10.210464 11.210988 2.386949 -7.425584 -76.943065 6.361035 -13.829934 0.000000 0.000002 -0.000000 -93.502428 -2.440008 -3.069122 55.677312 -2.758559 1.031039 7.351222 -27.545542 -7.267348 -6.119690 -0.000009 0.000000 0.000000 -0.000002 -0.000000 
6.683559 65.072243 12.394258 29.839242 3.052607 1.597114 11.303496 -10.952513 14.684541 3.082086 -3.268849 1.861365 2.941691 -3.405633 2.013541 -1.144683 2.630438 -4.915545 -6.508225 12.770342 -16.835967 -0.000004 0.000000 -0.000000 4.569687 -13.211655 6.774341 -34.417726 -28.705625 -5.477929 -0.000005 -42.170278 0.000002 -20.790355 -10.538933 -3.331911 0.520908 4.680826 -15.727209 0.195218 1.501320 -14.818275 0.195037 1.500533 -14.810347 -0.000000 -0.000001 0.000001 -10.038311 -16.323805 0.831963 8.069968 28.873648 3.491740 -6.647524 4.865818 15.288965 0.000001 0.000000 0.000000 0.445329 10.476394 17.465291 -23.309370 -38.103214 30.301079 -0.000006 17.728588 -0.000000 -21.360331 2.044460 -20.270267 -6.025110 8.295597 -4.500995 7.284790 -22.003793 -1.845907 -6.523142 2.147584 -12.134604 -0.000000 -0.000001 -0.000000 -0.547030 2.549946 6.873371 0.048711 -0.672535 8.284878 0.051600 -0.692131 8.528219 0.000000 -0.000000 0.000003 -2.370641 17.830118 -3.745128 42.419723 1.407859 -9.221100 26.264943 5.825958 -3.469662 -89.333936 15.525420 -12.123913 -0.000000 0.000003 0.000000 -95.448895 -4.244127 -4.943751 58.668736 -0.066586 0.855657 4.047299 -26.889258 -6.192101 -6.730036 0.000017 -0.000001 -0.000000 0.000001 0.000000 
8.624357 63.956078 14.376289 32.552043 2.246257 0.348379 11.924825 -8.911668 15.996137 3.179076 -2.804110 2.024486 3.036567 -2.909529 2.160112 -1.332240 2.577820 -5.132788 -6.326677 12.711347 -17.713336 -0.000002 0.000000 -0.000000 4.019074 -13.147447 1.884758 -33.813927 -17.351582 -4.430918 0.000012 -29.863349 0.000006 -27.565032 -8.939424 -4.282663 0.449544 4.450817 -15.114391 0.167164 1.390901 -13.705760 0.166949 1.390026 -13.696930 0.000001 0.000000 0.000000 -9.034415 -14.027977 1.783883 7.578783 24.936636 3.026216 -6.337669 7.153689 15.674005 -0.000002 0.000000 0.000001 0.066734 14.419124 16.555742 -25.236649 -42.773332 31.535134 -0.000003 20.032178 0.000004 -34.395494 0.231721 -19.518191 -5.929477 8.154279 -5.043293 6.994991 -19.706189 -1.869042 -6.234936 0.206986 -12.770449 0.000000 0.000001 -0.000000 -0.299030 1.292863 5.396985 0.023772 -0.470449 5.785217 0.025272 -0.485034 5.964955 -0.000001 -0.000000 0.000005 -8.616499 20.418600 3.016369 55.221656 14.893820 -8.860816 20.583516 17.248547 -10.128268 -52.812949 20.651721 -23.940167 -0.000001 0.000000 -0.000000 -99.084243 -6.177612 -6.909483 62.909293 1.890268 0.594750 1.236230 -26.178360 -5.392261 -7.366424 -0.000015 0.000006 -0.000000 0.000002 0.000000 
11.069237 63.282074 16.920311 36.160476 2.479599 -1.163216 12.117494 -7.051650 16.325460 3.274931 -2.326365 2.255646 3.158838 -2.383155 2.367897 -1.656109 2.532174 -5.396918 -5.869748 12.659252 -18.726241 -0.000001 0.000000 -0.000000 2.797041 -11.788963 -4.979794 -32.845492 -7.253868 -3.095827 -0.000000 -19.970222 -0.000002 -30.565544 -8.770337 -0.416500 0.341527 4.094927 -13.122172 0.112546 1.144004 -11.237023 0.112371 1.143125 -11.228242 0.000001 0.000003 -0.000003 -8.108896 -11.809221 2.626804 7.111035 21.238050 2.560802 -6.317341 7.196425 15.509886 -0.000002 0.000003 0.000001 -0.230126 18.653568 16.125902 -27.140534 -46.454569 31.145471 0.000001 21.044037 0.000002 -47.863503 -2.047425 -17.057578 -5.916749 8.045401 -5.412050 6.730047 -17.604645 -1.894052 -5.975364 -1.644142 -13.375677 -0.000000 -0.000000 -0.000000 -0.127205 0.084872 4.072277 0.008673 -0.284444 3.494001 0.009288 -0.294251 3.614759 -0.000000 -0.000001 0.000001 -17.803274 22.330412 10.104972 61.027638 12.793792 -9.110368 10.759939 27.828154 -5.769315 -31.878115 9.860482 -16.330673 -0.000000 -0.000001 -0.000000 -102.445618 -6.897149 -10.254218 66.801306 3.603758 0.456091 -1.957148 -25.582931 -3.503127 -8.019121 -0.000013 -0.000003 -0.000001 0.000001 0.000000 
